<?xml version="1.0" encoding="UTF-8"?>
<svg id="Capa_2" data-name="Capa 2" xmlns="http://www.w3.org/2000/svg" viewBox="0 0 108.96 116.62">
  <defs>
    <style>
      .cls-1 {
        stroke-miterlimit: 10;
        stroke-width: 3.5px;
      }

      .cls-1, .cls-2 {
        fill: none;
        stroke: #f0e6d5;
      }

      .cls-2 {
        stroke-linecap: round;
        stroke-linejoin: round;
        stroke-width: 5.6px;
      }
    </style>
  </defs>
  <g id="Layer_1" data-name="Layer 1">
    <g>
      <path class="cls-2" d="M36.56,74.31C36.56-17.99,71.36,5.46,71.36,5.46"/>
      <path class="cls-2" d="M106.16,6.98s-34.8-23.45-34.8,68.85"/>
      <line class="cls-1" x1="36.71" y1="47.13" x2="71.21" y2="47.13"/>
      <line class="cls-1" x1="36.71" y1="61.05" x2="71.21" y2="61.05"/>
      <line class="cls-1" x1="39.06" y1="33.2" x2="73.57" y2="33.2"/>
      <path class="cls-2" d="M3.85,71.84s13.83-5.39,32.02,4.84,35.47,0,35.47,0c0,0,19.67-12.32,34.83.19"/>
      <path class="cls-2" d="M2.8,88.13s13.83-5.39,32.02,4.84,35.47,0,35.47,0c0,0,19.67-12.32,34.83.19"/>
      <path class="cls-2" d="M2.8,104.43s13.83-5.39,32.02,4.84,35.47,0,35.47,0c0,0,19.67-12.32,34.83.19"/>
    </g>
  </g>
</svg>