<?xml version="1.0" encoding="UTF-8"?>
<svg id="Capa_2" data-name="Capa 2" xmlns="http://www.w3.org/2000/svg" viewBox="0 0 112.41 171.54">
  <defs>
    <style>
      .cls-1, .cls-2, .cls-3, .cls-4, .cls-5, .cls-6, .cls-7, .cls-8, .cls-9 {
        stroke: #e9d2a8;
      }

      .cls-1, .cls-2, .cls-3, .cls-4, .cls-7, .cls-9 {
        fill: none;
      }

      .cls-1, .cls-3, .cls-7, .cls-8 {
        stroke-width: 2px;
      }

      .cls-1, .cls-4, .cls-7, .cls-8, .cls-9 {
        stroke-miterlimit: 10;
      }

      .cls-2, .cls-3, .cls-10, .cls-5, .cls-6 {
        stroke-linejoin: round;
      }

      .cls-2, .cls-3, .cls-10, .cls-5, .cls-6, .cls-7, .cls-8, .cls-9 {
        stroke-linecap: round;
      }

      .cls-2, .cls-10 {
        stroke-width: .5px;
      }

      .cls-11, .cls-5, .cls-6, .cls-12 {
        fill: #e9d2a8;
      }

      .cls-13 {
        letter-spacing: .21em;
      }

      .cls-14 {
        letter-spacing: .19em;
      }

      .cls-10 {
        fill: #f8d895;
        stroke: #f8d895;
      }

      .cls-6 {
        stroke-width: .25px;
      }

      .cls-15 {
        letter-spacing: .2em;
      }

      .cls-8 {
        fill: #fff;
      }

      .cls-12 {
        font-family: CopperplateGothic-Bold, 'Copperplate Gothic Bold';
        font-size: 10px;
        font-weight: 700;
      }

      .cls-9 {
        stroke-width: .75px;
      }
    </style>
  </defs>
  <g id="Capa_2-2" data-name="Capa 2">
    <g>
      <path class="cls-3" d="M101.68,33l-26,.18c-3.15.06-4.26-1.04-3.17-3.7,1.57-3.86,4.9-8.73,10.34-4.95,0,0,6.13-11.18,15.79,2.53,1.02,1.44,2.52,3.61,3.05,5.94Z"/>
      <path class="cls-11" d="M97.22,29.84c.09.36-.1.73-.48.73l-18.39.07c-2.42.03-3.53-.15-3.06-1.41,1.66-4.42,4.85-3.88,7.61-2.01.12.08.96.1,1.06-.02,1-1.18,5.12-8.53,12.06.35.55.7.96,1.34,1.2,2.28Z"/>
      <line class="cls-4" x1="63.3" y1="137.9" x2="49.28" y2="137.9"/>
      <line class="cls-4" x1="81.93" y1="137.9" x2="69.91" y2="137.9"/>
      <line class="cls-4" x1="42.24" y1="137.9" x2="30.26" y2="137.9"/>
      <line class="cls-4" x1="63.3" y1="145.28" x2="49.28" y2="145.28"/>
      <line class="cls-4" x1="81.93" y1="145.28" x2="69.91" y2="145.28"/>
      <line class="cls-4" x1="42.24" y1="145.28" x2="30.26" y2="145.28"/>
      <line class="cls-4" x1="82.13" y1="130.51" x2="69.91" y2="130.51"/>
      <line class="cls-4" x1="63.3" y1="130.51" x2="49.28" y2="130.51"/>
      <line class="cls-4" x1="42.24" y1="130.51" x2="30.45" y2="130.51"/>
      <path class="cls-4" d="M69.91,126.5v24.29c0,.62-.04,1.23-.12,1.82h-2.96c.05-.42.08-.85.08-1.29v-24.63c0-2.99-1.21-5.7-3.17-7.66-1.96-1.96-4.68-3.17-7.67-3.17-5.98,0-10.83,4.85-10.83,10.83v24.63c0,.44.03.87.08,1.29h-2.96c-.08-.59-.12-1.2-.12-1.82v-24.29c0-7.64,6.2-13.83,13.83-13.83,3.82,0,7.28,1.55,9.79,4.05,2.5,2.5,4.05,5.96,4.05,9.78Z"/>
      <path class="cls-4" d="M63.3,126.86v25.75h-14.02v-25.75c0-3.87,3.14-7.01,7.01-7.01,1.93,0,3.69.78,4.96,2.05,1.27,1.27,2.05,3.03,2.05,4.96Z"/>
      <path class="cls-1" d="M66.91,126.69v24.63c0,.44-.03.87-.08,1.29h-3.53v-25.75c0-1.93-.78-3.69-2.05-4.96-1.27-1.27-3.03-2.05-4.96-2.05-3.87,0-7.01,3.14-7.01,7.01v25.75h-3.96c-.05-.42-.08-.85-.08-1.29v-24.63c0-5.98,4.85-10.83,10.83-10.83,2.99,0,5.71,1.21,7.67,3.17,1.96,1.96,3.17,4.67,3.17,7.66Z"/>
      <path class="cls-1" d="M63.3,126.86v25.75h-14.02v-25.75c0-3.87,3.14-7.01,7.01-7.01,1.93,0,3.69.78,4.96,2.05,1.27,1.27,2.05,3.03,2.05,4.96Z"/>
      <line class="cls-8" x1="30.46" y1="125.84" x2="30.46" y2="152.1"/>
      <polyline class="cls-7" points="19.74 126.32 56.15 94.31 92.89 126"/>
      <path class="cls-11" d="M63.3,126.86v25.75h-14.02v-25.75c0-3.87,3.14-7.01,7.01-7.01,1.93,0,3.69.78,4.96,2.05,1.27,1.27,2.05,3.03,2.05,4.96Z"/>
      <circle class="cls-5" cx="56.32" cy="104.97" r="1.67"/>
      <line class="cls-8" x1="82.13" y1="125.88" x2="82.13" y2="152.14"/>
      <path id="ac" class="cls-1" d="M56.08,4.95h0c28.55,0,51.73,23.18,51.73,51.73v95.93H4.35V56.68C4.35,28.13,27.53,4.95,56.08,4.95Z"/>
      <path id="aca" class="cls-4" d="M56.21.5h0c30.74,0,55.71,24.96,55.71,55.71v100.55H.5V56.21C.5,25.46,25.46.5,56.21.5Z"/>
      <polyline class="cls-9" points="19.72 122.65 56.13 90.64 92.87 122.33"/>
      <polyline class="cls-3" points="4.35 98.22 20.19 75.64 26.44 81.08"/>
      <polyline class="cls-3" points="107.27 82.55 95.65 72.36 73.92 92.07"/>
      <polyline class="cls-11" points="30.63 83.87 50.05 59.23 53.84 60.37 66.91 45.47 87.34 72.47"/>
      <polygon class="cls-6" points="66.91 52.05 58.98 61.37 69.15 64.55 71.99 68.91 83.08 72.36 66.91 52.05"/>
      <polygon class="cls-6" points="105.25 85.69 96.29 77.21 105.25 93.63 105.25 85.69"/>
      <polygon class="cls-6" points="20.5 80.28 21.03 87.45 24.79 84.25 20.5 80.28"/>
      <polyline class="cls-2" points="4.35 93.63 19.65 70.8 25.9 76.23"/>
      <polyline class="cls-2" points="30.63 78.4 50.05 53.77 53.84 54.9 66.91 40 87.34 67"/>
      <polyline class="cls-2" points="107.27 78.96 95.65 68.77 73.92 88.48"/>
      <polygon class="cls-6" points="21.26 98.52 31.08 91.89 37.57 97.1 33.02 94.99 30.61 97.9 26.44 100.04 29.83 95.65 21.26 98.52"/>
      <path class="cls-1" d="M50.31,52.86s-11.37-10.96-24.41-3.08-7.74,21.92-7.74,21.92"/>
      <path class="cls-10" d="M16.99,70.04s.69,3.16.92,3.16.81-2,.81-2l-1.74-1.16Z"/>
      <path class="cls-10" d="M51,52.49s2.16,1.99,2,2.16-3.06-1.19-3.06-1.19l1.07-.97Z"/>
      <path class="cls-6" d="M20.94,68.78s-1.74-8.27,4.3-14.11c4.64-4.48,12.78-7.03,21.19-.24l-16.87,21.55-8.62-7.2Z"/>
      <text class="cls-12" transform="translate(6.1 169.04)"><tspan class="cls-15" x="0" y="0">A</tspan><tspan class="cls-13" x="10.13" y="0">R</tspan><tspan class="cls-15" x="20.3" y="0">TES </tspan><tspan class="cls-14" x="52.34" y="0">L</tspan><tspan class="cls-15" x="61.31" y="0">ODGE</tspan></text>
    </g>
  </g>
</svg>
